<?xml version="1.0" encoding="UTF-8" standalone="no"?>
<svg
   xmlns:dc="http://purl.org/dc/elements/1.1/"
   xmlns:cc="http://creativecommons.org/ns#"
   xmlns:rdf="http://www.w3.org/1999/02/22-rdf-syntax-ns#"
   xmlns:svg="http://www.w3.org/2000/svg"
   xmlns="http://www.w3.org/2000/svg"
   xmlns:sodipodi="http://sodipodi.sourceforge.net/DTD/sodipodi-0.dtd"
   xmlns:inkscape="http://www.inkscape.org/namespaces/inkscape"
   viewBox="0 0 32 32"
   version="1.1"
   id="svg895"
   sodipodi:docname="mastodon.svg"
   width="32"
   height="32"
   inkscape:version="0.92.5 (2060ec1f9f, 2020-04-08)">
  <metadata
     id="metadata901">
    <rdf:RDF>
      <cc:Work
         rdf:about="">
        <dc:format>image/svg+xml</dc:format>
        <dc:type
           rdf:resource="http://purl.org/dc/dcmitype/StillImage" />
        <dc:title></dc:title>
      </cc:Work>
    </rdf:RDF>
  </metadata>
  <defs
     id="defs899" />
  <sodipodi:namedview
     pagecolor="#ffffff"
     bordercolor="#666666"
     borderopacity="1"
     objecttolerance="10"
     gridtolerance="10"
     guidetolerance="10"
     inkscape:pageopacity="0"
     inkscape:pageshadow="2"
     inkscape:window-width="960"
     inkscape:window-height="1047"
     id="namedview897"
     showgrid="false"
     inkscape:zoom="9.4906988"
     inkscape:cx="13.915266"
     inkscape:cy="8.1665243"
     inkscape:window-x="0"
     inkscape:window-y="0"
     inkscape:window-maximized="0"
     inkscape:current-layer="svg895" />
  <!--! Font Awesome Pro 6.4.0 by @fontawesome - https://fontawesome.com License - https://fontawesome.com/license (Commercial License) Copyright 2023 Fonticons, Inc. -->
  <path
     d="m 26.329252,12.397497 c 0,-4.9093585 -3.217853,-6.34883 -3.217853,-6.34883 -3.157749,-1.4495714 -11.544061,-1.4344219 -14.6715043,0 0,0 -3.2183548,1.4394715 -3.2183548,6.34883 0,5.843753 -0.3333527,13.101718 5.3351331,14.601803 2.046071,0.54043 3.804248,0.656601 5.218973,0.57579 2.566302,-0.141424 4.006278,-0.914192 4.006278,-0.914192 l -0.08586,-1.863734 c 0,0 -1.833939,0.575788 -3.895161,0.510124 -2.041021,-0.0707 -4.192149,-0.222231 -4.527013,-2.727417 a 5.1790687,5.1790687 0 0 1 -0.04548,-0.702059 c 4.324982,1.05561 8.013063,0.459616 9.028266,0.338402 2.834499,-0.338402 5.303318,-2.085974 5.617982,-3.682021 0.494976,-2.515287 0.454573,-6.136696 0.454573,-6.136696 z m -3.79415,6.323576 h -2.355179 v -5.76799 c 0,-2.510238 -3.232496,-2.6062 -3.232496,0.348507 v 3.156731 h -2.340028 v -3.157239 c 0,-2.954706 -3.232496,-2.858739 -3.232496,-0.348502 v 5.767986 H 9.0146743 c 0,-6.167002 -0.2626402,-7.470099 0.9298477,-8.8388625 1.308151,-1.459671 4.031529,-1.555638 5.244223,0.3080985 l 0.585892,0.984903 0.58589,-0.984903 c 1.21774,-1.8738405 3.945666,-1.7576705 5.24422,-0.3080985 1.197544,1.3788635 0.929347,2.6769155 0.929347,8.8388625 z"
     id="path893"
     style="fill:#cf5e16;fill-opacity:1;stroke-width:0.05050779"
     inkscape:connector-curvature="0" />
</svg>
